<?xml version="1.0" encoding="UTF-8"?>
<svg width="1200pt" height="1200pt" version="1.1" viewBox="0 0 1200 1200" xmlns="http://www.w3.org/2000/svg">
 <g>
  <path d="m162.5 522.5h195c7.5 0 12.5-2.5 17.5-7.5l137.5-137.5c5-5 7.5-10 7.5-17.5v-197.5c0-7.5-2.5-12.5-7.5-17.5l-137.5-137.5c-2.5-5-7.5-7.5-15-7.5h-197.5c-5 0-12.5 2.5-17.5 7.5l-137.5 137.5c-5 5-7.5 12.5-7.5 17.5v195c0 7.5 2.5 12.5 7.5 17.5l137.5 137.5c5 7.5 12.5 10 17.5 10zm-112.5-347.5 125-125h175l125 125v175l-125 125h-175l-125-125z"/>
  <path d="m262.5 380c65 0 117.5-52.5 117.5-117.5s-52.5-117.5-117.5-117.5-117.5 52.5-117.5 117.5 52.5 117.5 117.5 117.5zm0-187.5c37.5 0 67.5 30 67.5 67.5s-30 67.5-67.5 67.5-70-27.5-70-65 32.5-70 70-70z"/>
  <path d="m1192.5 822.5-137.5-137.5c-5-5-10-7.5-17.5-7.5h-195c-7.5 0-12.5 2.5-17.5 7.5l-137.5 137.5c-5 5-7.5 10-7.5 17.5v195c0 7.5 2.5 12.5 7.5 17.5l137.5 137.5c5 5 10 7.5 17.5 7.5h195c7.5 0 12.5-2.5 17.5-7.5l137.5-137.5c5-5 7.5-10 7.5-17.5v-195c0-7.5-2.5-12.5-7.5-17.5zm-42.5 202.5-125 125h-175l-125-125v-175l125-125h175l125 125z"/>
  <path d="m937.5 820c-65 0-117.5 52.5-117.5 117.5s52.5 117.5 117.5 117.5 117.5-52.5 117.5-117.5-52.5-117.5-117.5-117.5zm0 187.5c-37.5 0-67.5-30-67.5-67.5s30-67.5 67.5-67.5 67.5 30 67.5 67.5c2.5 35-30 67.5-67.5 67.5z"/>
  <path d="m865 500c85 25 177.5 0 240-62.5 67.5-67.5 90-170 55-260-7.5-17.5-27.5-22.5-40-7.5l-122.5 122.5-90-90 122.5-122.5c12.5-12.5 7.5-35-7.5-40-90-35-192.5-12.5-260 55-65 62.5-87.5 155-62.5 240l-365 365c-85-25-177.5 0-240 62.5-67.5 67.5-90 170-55 260 7.5 17.5 27.5 22.5 40 7.5l122.5-122.5 90 90-122.5 122.5c-12.5 12.5-7.5 35 7.5 40 90 35 192.5 12.5 260-55 62.5-62.5 85-155 62.5-240zm-462.5 570c-45 45-107.5 65-167.5 55l110-110c10-10 10-25 0-35l-125-125c-10-10-25-10-35 0l-110 110c-10-60 10-122.5 55-167.5 52.5-52.5 132.5-70 202.5-45 10 2.5 20 0 25-5l387.5-387.5c7.5-7.5 10-17.5 5-25-25-70-7.5-150 45-202.5 45-45 107.5-65 167.5-55l-110 110c-10 10-10 25 0 35l125 125c10 10 25 10 35 0l110-110c10 60-10 122.5-55 167.5-52.5 52.5-132.5 70-202.5 45-10-2.5-20 0-25 5l-385 387.5c-7.5 7.5-10 17.5-5 25 25 70 5 150-47.5 202.5z"/>
 </g>
</svg>
